<svg width="60" height="73" viewBox="0 0 60 73" fill="none" xmlns="http://www.w3.org/2000/svg">
<g clip-path="url(#clip0_1095_10376)">
<path fill-rule="evenodd" clip-rule="evenodd" d="M36.6307 0.0396242L36.6178 0H36.1577C35.7755 0 35.4091 0.151672 35.1389 0.422233C34.8683 0.692433 34.7166 1.05883 34.7166 1.44107V22.6969C34.7166 23.4927 35.3619 24.1379 36.1577 24.1379H55.9724V69.5316H4.02761V2.88214H30.1801C30.976 2.88214 31.6212 2.2369 31.6212 1.44107C31.6212 0.645239 30.976 0 30.1801 0C24.3009 0 2.43954 0 2.43954 0C2.0573 0 1.69091 0.151672 1.42071 0.422233C1.15015 0.692433 0.998474 1.05883 0.998474 1.44107C0.998474 10.6985 0.998474 61.7153 0.998474 70.9727C0.998474 71.355 1.15015 71.7214 1.42071 71.9916C1.69091 72.2625 2.0573 72.4138 2.43954 72.4138C10.4616 72.4138 49.5384 72.4138 57.5605 72.4138C57.9427 72.4138 58.3091 72.2625 58.5793 71.9916C58.8499 71.7214 59.0016 71.355 59.0016 70.9727C59.0016 67.3034 59.0016 22.6234 59.0016 22.6234L36.6307 0.0396242ZM37.2277 62.1238C38.1107 62.1238 38.8266 61.408 38.8266 60.525C38.8266 59.6419 38.1107 58.9261 37.2277 58.9261H23.4929C22.6098 58.9261 21.894 59.6419 21.894 60.525C21.894 61.408 22.6098 62.1238 23.4929 62.1238C26.7237 62.1238 33.9968 62.1238 37.2277 62.1238ZM43.1498 40.1475C43.1498 39.7235 42.9812 39.3167 42.6814 39.017C42.3817 38.7172 41.975 38.5486 41.5509 38.5486C41.5509 38.5486 41.5509 38.5486 41.5505 38.5486C41.1265 38.5486 40.7198 38.7172 40.42 39.017C40.1203 39.3167 39.9517 39.7235 39.9517 40.1475C39.9517 41.5237 39.9517 43.4994 39.9517 44.8757C39.9517 45.2997 40.1203 45.7064 40.42 46.0062C40.7198 46.3059 41.1265 46.4745 41.5505 46.4745C41.5509 46.4745 41.5509 46.4745 41.5509 46.4745C41.975 46.4745 42.3817 46.3059 42.6814 46.0062C42.9812 45.7064 43.1498 45.2997 43.1498 44.8757C43.1498 43.4994 43.1498 41.5237 43.1498 40.1475ZM20.0483 40.1475C20.0483 39.7235 19.8797 39.3167 19.58 39.017C19.2803 38.7172 18.8735 38.5486 18.4495 38.5486C18.4491 38.5486 18.4491 38.5486 18.4491 38.5486C18.0251 38.5486 17.6183 38.7172 17.3186 39.017C17.0188 39.3167 16.8502 39.7235 16.8502 40.1475C16.8502 41.5237 16.8502 43.4994 16.8502 44.8757C16.8502 45.2997 17.0188 45.7064 17.3186 46.0062C17.6183 46.3059 18.0251 46.4745 18.4491 46.4745C18.4491 46.4745 18.4491 46.4745 18.4495 46.4745C18.8735 46.4745 19.2803 46.3059 19.58 46.0062C19.8797 45.7064 20.0483 45.2997 20.0483 44.8757C20.0483 43.4994 20.0483 41.5237 20.0483 40.1475ZM37.7458 5.0859V21.1088H53.9964L37.7458 5.0859Z" fill="#B3B3B3"/>
</g>
<defs>
<clipPath id="clip0_1095_10376">
<rect width="60" height="72.4138" fill="white"/>
</clipPath>
</defs>
</svg>
